<?xml version="1.0" encoding="utf-8"?>
<!-- Generator: Adobe Illustrator 22.0.0, SVG Export Plug-In . SVG Version: 6.00 Build 0)  -->
<svg version="1.1" id="Layer_1" xmlns="http://www.w3.org/2000/svg" xmlns:xlink="http://www.w3.org/1999/xlink" x="0px" y="0px"
	 viewBox="0 0 229 39" style="enable-background:new 0 0 229 39;" xml:space="preserve">
<style type="text/css">
	.st0{fill:#221F1F;}
</style>
<g>
	<g>
		<path class="st0" d="M100.7,19.7c-0.2,0-0.4,0.1-0.5,0.2l-2.6,2.6c-0.1,0.1-0.2,0.3-0.2,0.5c0,0.2,0.1,0.4,0.2,0.5
			c0.3,0.3,0.7,0.3,1,0l2.6-2.6c0.1-0.1,0.2-0.3,0.2-0.5c0-0.2-0.1-0.4-0.2-0.5C101.1,19.7,100.9,19.7,100.7,19.7z"/>
	</g>
	<g>
		<path class="st0" d="M93.4,3.6c-8.4,0-15.1,6.8-15.1,15.1c0,8.4,6.8,15.1,15.1,15.1c8.4,0,15.1-6.8,15.1-15.1
			C108.5,10.3,101.7,3.6,93.4,3.6z M94.6,26.5c0,0.6-0.5,1.2-1.2,1.2c-0.6,0-1.2-0.5-1.2-1.2V13.4l-4.5,4.4c-0.5,0.5-1.2,0.4-1.7,0
			c-0.5-0.5-0.4-1.2,0-1.7l6.1-6c0.4-0.4,1-0.5,1.5-0.3c0.5,0.2,0.9,0.7,0.9,1.3V26.5z M101.9,21.5l-2.6,2.6
			c-0.3,0.3-0.7,0.5-1.2,0.5c-0.4,0-0.9-0.2-1.2-0.5c-0.3-0.3-0.5-0.7-0.5-1.2c0-0.4,0.2-0.9,0.5-1.2l2.6-2.6
			c0.3-0.3,0.7-0.5,1.2-0.5c0.4,0,0.9,0.2,1.2,0.5c0.3,0.3,0.5,0.7,0.5,1.2C102.4,20.8,102.2,21.2,101.9,21.5z"/>
	</g>
	<g>
		<path class="st0" d="M221.4,17.4c-0.7,0-1.3,0.6-1.3,1.3c0,0.7,0.6,1.3,1.3,1.3h3.6c0.7,0,1.2-0.5,1.2-1.2c0-0.8-0.5-1.3-1.2-1.3
			H221.4z"/>
		<path class="st0" d="M225.9,24.6h-6.9c-0.3,0-0.3,0-0.3-0.3V13c0-0.2,0-0.3,0.3-0.3h6.8c0.7,0,1.2-0.5,1.2-1.2
			c0-0.7-0.5-1.2-1.2-1.2h-7.5c-1.4,0-2.1,0.7-2.1,2v12.5c0,1.5,0.6,2.1,2.1,2.1h7.7c0.6,0,1.1-0.5,1.1-1.2
			C227,25.1,226.5,24.6,225.9,24.6z"/>
		<path class="st0" d="M172.4,10.2c-4.7,0-8.5,3.8-8.5,8.5c0,4.7,3.8,8.5,8.5,8.5c4.7,0,8.5-3.8,8.5-8.5
			C180.9,14,177.1,10.2,172.4,10.2z M172.4,24.7c-3.3,0-6-2.7-6-6c0-3.3,2.7-6,6-6c3.3,0,6,2.7,6,6C178.4,22,175.7,24.7,172.4,24.7z
			"/>
		<path class="st0" d="M126.7,17.4l-1.4-0.4c-1.7-0.4-2.6-1.2-2.6-2.4c0-1.2,1.2-2.1,3-2.1c1.3,0,2.4,0.3,3.4,0.9
			c0.6,0.4,1.3,0.2,1.6-0.4c0.3-0.5,0.3-1.3-0.4-1.7c-0.7-0.5-2.3-1.3-4.7-1.3c-3.7,0-5.6,2.3-5.6,4.6c0,2.3,1.6,4,4.4,4.7l1.4,0.4
			c1.9,0.5,2.8,1.3,2.8,2.6c0,1.6-1.2,2.5-3.4,2.5c-1.4,0-2.7-0.6-3.5-1.2c-0.2-0.2-0.5-0.3-0.8-0.3c-0.4,0-0.7,0.2-1,0.5
			c-0.4,0.5-0.4,1.3,0.3,1.8c1.2,1,3.1,1.6,5,1.6c3.7,0,6.1-2,6.1-5.1C131.2,19.7,129.6,18.1,126.7,17.4z"/>
		<path class="st0" d="M200.9,19.7c2-0.7,3.1-2.3,3.1-4.5c0-3.1-2.1-4.9-5.8-4.9h-3.6c-1.4,0-2.1,0.7-2.1,2V26
			c0,0.7,0.5,1.1,1.3,1.1c0.7,0,1.2-0.4,1.2-1.1V12.8c0-0.1,0-0.1,0-0.2c0,0,0,0,0.2,0h2.7c2.4,0,3.5,0.8,3.5,2.6
			c0,1.5-0.8,2.3-2.6,2.6c-0.1,0-0.3,0.1-0.4,0.2l0,0c-0.5,0.3-0.7,1-0.4,1.6l4.1,7c0.2,0.4,0.6,0.6,1,0.6c0,0,0,0,0,0
			c0.5,0,1-0.3,1.2-0.7c0.2-0.4,0.2-0.8,0-1.2L200.9,19.7z"/>
		<path class="st0" d="M148.2,14.7c-0.7,0-1.3,0.6-1.3,1.3v10c0,0.7,0.5,1.1,1.3,1.1c0.8,0,1.3-0.4,1.3-1.1V16
			C149.5,15.3,148.9,14.7,148.2,14.7z"/>
		<path class="st0" d="M153.6,10.3h-10.9c-0.7,0-1.1,0.5-1.1,1.2c0,0.7,0.4,1.2,1.1,1.2h10.9c0.7,0,1.1-0.5,1.1-1.2
			C154.7,10.8,154.3,10.3,153.6,10.3z"/>
	</g>
	<g>
		<path class="st0" d="M60.1,17.4c-0.7,0-1.3,0.6-1.3,1.3c0,0.7,0.6,1.3,1.3,1.3h3.6c0.7,0,1.2-0.5,1.2-1.2c0-0.8-0.5-1.3-1.2-1.3
			H60.1z"/>
		<path class="st0" d="M64.3,24.6h-6.9c-0.3,0-0.3,0-0.3-0.3V13c0-0.2,0-0.3,0.3-0.3h6.8c0.7,0,1.2-0.5,1.2-1.2
			c0-0.7-0.5-1.2-1.2-1.2h-7.5c-1.4,0-2.1,0.7-2.1,2v12.5c0,1.5,0.6,2.1,2.1,2.1h7.7c0.6,0,1.1-0.5,1.1-1.2
			C65.5,25.1,65,24.6,64.3,24.6z"/>
		<path class="st0" d="M10.5,10.2C5.8,10.2,2,14,2,18.7c0,4.7,3.8,8.5,8.5,8.5c4.7,0,8.5-3.8,8.5-8.5C19.1,14,15.2,10.2,10.5,10.2z
			 M10.5,24.7c-3.3,0-6-2.7-6-6c0-3.3,2.7-6,6-6s6,2.7,6,6C16.6,22,13.9,24.7,10.5,24.7z"/>
		<path class="st0" d="M41.6,10.2c-0.7,0-1.3,0.6-1.3,1.3v5.1c0,0.7,0.6,1.3,1.3,1.3c0.7,0,1.3-0.6,1.3-1.3v-5.1
			C42.9,10.8,42.3,10.2,41.6,10.2z"/>
		<path class="st0" d="M32.7,10.8c0-0.1-0.1-0.1-0.1-0.1l0,0c0,0,0,0,0-0.1c-0.4-0.4-1-0.5-1.5-0.2c-0.4,0.2-0.6,0.6-0.6,1l0,14.5
			c0,0.7,0.6,1.3,1.3,1.3c0.7,0,1.3-0.6,1.3-1.3V15.4l7.5,10.7c0.2,0.3,0.4,0.5,0.8,0.6c0.1,0,0.2,0,0.3,0c0.2,0,0.5-0.1,0.6-0.2
			c0.3-0.2,0.5-0.4,0.6-0.8c0.1-0.3,0-0.7-0.1-1L32.7,10.8z"/>
	</g>
</g>
</svg>
