<?xml version="1.0" encoding="utf-8"?>
<!-- Generator: Adobe Illustrator 22.0.0, SVG Export Plug-In . SVG Version: 6.00 Build 0)  -->
<svg version="1.1" id="Layer_1" xmlns="http://www.w3.org/2000/svg" xmlns:xlink="http://www.w3.org/1999/xlink" x="0px" y="0px"
	 viewBox="0 0 228.7 39.1" style="enable-background:new 0 0 228.7 39.1;" xml:space="preserve">
<style type="text/css">
	.st0{fill:#FFFFFF;}
</style>
<g>
	<g>
		<path class="st0" d="M100.9,20.5c-0.2,0-0.4,0.1-0.5,0.2l-2.6,2.6c-0.1,0.1-0.2,0.3-0.2,0.5c0,0.2,0.1,0.4,0.2,0.5
			c0.3,0.3,0.7,0.3,1,0l2.6-2.6c0.1-0.1,0.2-0.3,0.2-0.5c0-0.2-0.1-0.4-0.2-0.5C101.3,20.6,101.1,20.5,100.9,20.5z"/>
	</g>
	<g>
		<path class="st0" d="M93.5,4.2c-8.5,0-15.3,6.9-15.3,15.3c0,8.5,6.9,15.3,15.3,15.3c8.5,0,15.3-6.9,15.3-15.3
			C108.8,11.1,101.9,4.2,93.5,4.2z M94.8,27.4c0,0.7-0.5,1.2-1.2,1.2c-0.7,0-1.2-0.5-1.2-1.2V14.2l-4.5,4.4c-0.5,0.5-1.2,0.5-1.7,0
			c-0.5-0.5-0.5-1.2,0-1.7l6.2-6.1c0.4-0.4,1-0.5,1.5-0.3c0.5,0.2,0.9,0.7,0.9,1.3V27.4z M102.1,22.4L99.5,25
			c-0.3,0.3-0.7,0.5-1.2,0.5c-0.5,0-0.9-0.2-1.2-0.5c-0.3-0.3-0.5-0.7-0.5-1.2c0-0.4,0.2-0.9,0.5-1.2l2.6-2.6
			c0.3-0.3,0.7-0.5,1.2-0.5c0.5,0,0.9,0.2,1.2,0.5c0.3,0.3,0.5,0.7,0.5,1.2C102.6,21.7,102.4,22.1,102.1,22.4z"/>
	</g>
	<g>
		<path class="st0" d="M223,18.3c-0.7,0-1.3,0.6-1.3,1.3c0,0.7,0.6,1.3,1.3,1.3h3.6c0.7,0,1.2-0.5,1.2-1.3c0-0.8-0.5-1.3-1.2-1.3
			H223z"/>
		<path class="st0" d="M227.5,25.5h-7c-0.3,0-0.3,0-0.3-0.3V13.8c0-0.2,0-0.3,0.3-0.3h6.9c0.7,0,1.2-0.5,1.2-1.2
			c0-0.7-0.5-1.2-1.2-1.2h-7.6c-1.4,0-2.2,0.7-2.2,2.1v12.6c0,1.5,0.7,2.2,2.2,2.2h7.8c0.7,0,1.1-0.5,1.1-1.2
			C228.7,26.1,228.2,25.5,227.5,25.5z"/>
		<path class="st0" d="M173.4,10.9c-4.8,0-8.6,3.9-8.6,8.6c0,4.8,3.9,8.6,8.6,8.6c4.8,0,8.6-3.9,8.6-8.6
			C182,14.8,178.2,10.9,173.4,10.9z M173.4,25.7c-3.4,0-6.1-2.7-6.1-6.1c0-3.4,2.7-6.1,6.1-6.1c3.4,0,6.1,2.7,6.1,6.1
			C179.5,22.9,176.8,25.7,173.4,25.7z"/>
		<path class="st0" d="M127.2,18.2l-1.4-0.4c-1.8-0.4-2.6-1.2-2.6-2.4c0-1.3,1.3-2.1,3-2.1c1.3,0,2.4,0.3,3.4,1
			c0.6,0.4,1.3,0.2,1.7-0.4c0.3-0.5,0.3-1.3-0.4-1.7c-0.7-0.5-2.3-1.3-4.8-1.3c-3.7,0-5.7,2.3-5.7,4.6c0,2.3,1.6,4,4.4,4.7l1.4,0.4
			c2,0.5,2.8,1.3,2.8,2.6c0,1.6-1.3,2.5-3.4,2.5c-1.4,0-2.8-0.6-3.6-1.3c-0.2-0.2-0.5-0.3-0.8-0.3c-0.4,0-0.7,0.2-1,0.5
			c-0.4,0.5-0.4,1.3,0.3,1.8c1.2,1,3.1,1.6,5.1,1.6c3.7,0,6.2-2,6.2-5.1C131.8,20.6,130.2,18.9,127.2,18.2z"/>
		<path class="st0" d="M202.3,20.6c2-0.7,3.1-2.4,3.1-4.6c0-3.1-2.1-4.9-5.8-4.9h-3.7c-1.4,0-2.1,0.7-2.1,2v13.8
			c0,0.7,0.5,1.1,1.3,1.1c0.8,0,1.3-0.5,1.3-1.1V13.5c0-0.1,0-0.2,0-0.2c0,0,0,0,0.2,0h2.7c2.5,0,3.5,0.8,3.5,2.6
			c0,1.5-0.8,2.4-2.6,2.6c-0.2,0-0.3,0.1-0.4,0.2l0,0c-0.5,0.4-0.7,1.1-0.4,1.6l4.2,7c0.2,0.4,0.6,0.6,1,0.6c0,0,0,0,0,0
			c0.5,0,1-0.3,1.3-0.8c0.2-0.4,0.2-0.8,0-1.2L202.3,20.6z"/>
		<path class="st0" d="M148.9,15.5c-0.7,0-1.3,0.6-1.3,1.3v10.1c0,0.7,0.5,1.1,1.3,1.1c0.8,0,1.3-0.5,1.3-1.1V16.8
			C150.2,16.1,149.6,15.5,148.9,15.5z"/>
		<path class="st0" d="M154.4,11h-11c-0.7,0-1.1,0.5-1.1,1.2c0,0.7,0.5,1.2,1.1,1.2h11c0.7,0,1.1-0.5,1.1-1.2
			C155.5,11.5,155.1,11,154.4,11z"/>
	</g>
	<g>
		<path class="st0" d="M59.9,18.3c-0.7,0-1.3,0.6-1.3,1.3c0,0.7,0.6,1.3,1.3,1.3h3.6c0.7,0,1.2-0.5,1.2-1.3c0-0.8-0.5-1.3-1.2-1.3
			H59.9z"/>
		<path class="st0" d="M64.1,25.5h-7c-0.3,0-0.3,0-0.3-0.3V13.8c0-0.2,0-0.3,0.3-0.3H64c0.7,0,1.2-0.5,1.2-1.2
			c0-0.7-0.5-1.2-1.2-1.2h-7.6c-1.4,0-2.2,0.7-2.2,2.1v12.6c0,1.5,0.7,2.2,2.2,2.2h7.8c0.7,0,1.1-0.5,1.1-1.2
			C65.2,26.1,64.8,25.5,64.1,25.5z"/>
		<path class="st0" d="M9.7,10.9c-4.8,0-8.6,3.9-8.6,8.6c0,4.8,3.9,8.6,8.6,8.6c4.8,0,8.6-3.9,8.6-8.6C18.3,14.8,14.5,10.9,9.7,10.9
			z M9.7,25.7c-3.4,0-6.1-2.7-6.1-6.1c0-3.4,2.7-6.1,6.1-6.1s6.1,2.7,6.1,6.1C15.8,22.9,13.1,25.7,9.7,25.7z"/>
		<path class="st0" d="M41.1,11c-0.7,0-1.3,0.6-1.3,1.3v5.2c0,0.7,0.6,1.3,1.3,1.3c0.7,0,1.3-0.6,1.3-1.3v-5.2
			C42.4,11.5,41.8,11,41.1,11z"/>
		<path class="st0" d="M32.1,11.6c0-0.1-0.1-0.1-0.1-0.1l0,0c0,0,0,0,0-0.1c-0.4-0.4-1.1-0.5-1.5-0.2c-0.4,0.2-0.6,0.6-0.6,1l0,14.7
			c0,0.7,0.6,1.3,1.3,1.3s1.3-0.6,1.3-1.3V16.2L40,27.1c0.2,0.3,0.5,0.5,0.8,0.6c0.1,0,0.2,0,0.3,0c0.2,0,0.5-0.1,0.7-0.2
			c0.3-0.2,0.5-0.5,0.6-0.8c0.1-0.3,0-0.7-0.1-1L32.1,11.6z"/>
	</g>
</g>
</svg>
